<svg width="177" height="181" viewBox="0 0 177 181" fill="none" xmlns="http://www.w3.org/2000/svg">
<g id="a" clip-path="url(#clip0_263_846)">
<path id="Vector" d="M12.6558 124.521C13.7697 123.188 14.8837 121.855 15.9667 120.522C20.3915 115.159 24.7854 109.735 29.3031 104.434C39.2048 92.7784 54.9548 92.8714 64.8565 104.589C67.2391 107.441 69.6217 110.293 72.3138 113.516C77.2956 107.844 82.0608 102.45 86.7951 97.0562C89.6727 93.7703 92.5504 90.4535 95.4281 87.1367C104.835 76.2252 121.358 76.2562 130.765 87.1367C140.821 98.7301 150.94 110.262 160.996 121.886C161.955 123.002 162.636 124.397 163.41 125.668L164.802 124.676C164.864 123.312 164.988 121.979 164.988 120.615C164.988 106.015 165.019 91.4145 164.988 76.8452C164.988 73.7763 166.071 71.1415 169.01 70.6145C170.929 70.2735 173.342 71.3895 175.168 72.4744C176.065 73.0014 176.437 74.9543 176.437 76.2872C176.499 99.4121 176.777 122.537 176.313 145.631C175.973 163.331 159.697 179.822 142.059 180.721C130.734 181.279 119.378 181 108.053 181C85.3717 181 62.6905 181 39.9784 181C16.5546 180.907 0.031065 164.416 0.00012207 141.012C0.00012207 108.712 0.00012207 76.4422 0.00012207 44.1418C0.031065 20.459 16.4618 4.0298 40.164 4.0298C60.6483 4.0298 81.1634 4.0298 101.648 4.0298C103.071 4.0298 104.494 3.96781 105.887 4.1848C109.043 4.68077 110.59 6.75767 110.559 9.85752C110.559 12.9574 108.888 14.9413 105.825 15.5302C104.587 15.7782 103.257 15.6542 101.957 15.6542C81.4729 15.6542 60.9577 15.6542 40.4735 15.6542C23.3001 15.6542 11.6347 27.3716 11.6037 44.6068C11.6037 69.6535 11.6037 94.7313 11.6037 119.778V123.994L12.6248 124.521H12.6558ZM88.2494 169.314C104.494 169.314 120.739 169.345 136.984 169.314C150.476 169.252 161.306 160.386 163.843 147.15C164.183 145.445 163.503 142.965 162.389 141.663C148.928 126.04 135.283 110.51 121.637 95.0413C116.346 89.0276 109.26 89.0276 103.907 95.0413C95.1806 104.899 86.5785 114.849 77.9144 124.738C73.2421 130.101 70.2096 130.07 65.7539 124.707C62.4739 120.708 59.194 116.74 55.8521 112.803C50.1277 106.139 43.0417 106.108 37.472 112.803C29.4887 122.444 21.5364 132.084 13.7697 141.911C12.6867 143.275 12.1298 145.693 12.4082 147.46C14.3576 159.766 25.8065 169.252 38.7407 169.314C55.2333 169.407 71.7258 169.314 88.2494 169.314Z" fill="url(#paint0_linear_263_846)"/>
<path id="Vector_2" d="M24.7854 51.0545C24.8472 38.4381 34.5324 28.7976 47.0643 28.8286C59.5652 28.8906 69.4979 38.7171 69.5288 51.0855C69.5598 63.3918 59.132 73.7453 46.8477 73.6833C34.5324 73.5903 24.7544 63.5468 24.7854 51.0545ZM57.5539 51.2405C57.6158 45.3817 52.9125 40.546 47.1261 40.515C41.4326 40.484 36.4818 45.3507 36.389 51.0545C36.2961 56.7892 41.0923 61.6559 46.9405 61.6869C52.8506 61.7179 57.492 57.1612 57.5539 51.2405Z" fill="url(#paint1_linear_263_846)"/>
<path id="Vector_3" d="M156.014 23.4968C156.014 28.1466 156.169 32.7964 155.952 37.4151C155.798 41.2279 154.282 44.4518 150.568 46.1257C147.474 47.5206 144.101 47.3966 141.966 44.9168C140.11 42.7469 138.501 39.616 138.346 36.8262C137.882 27.9606 138.098 19.033 138.222 10.1365C138.315 4.18478 142.183 -0.0310117 147.196 -1.32836e-05C152.023 0.0309852 155.705 4.12278 155.983 9.95049C156.107 12.2754 155.983 14.6003 155.983 16.9251C155.983 19.126 155.983 21.2959 155.983 23.4968H156.014Z" fill="url(#paint2_linear_263_846)"/>
<path id="Vector_4" d="M147.01 73.5284C142.183 73.4664 138.098 69.3436 138.191 64.6318C138.284 59.8891 142.523 55.7353 147.196 55.7973C151.93 55.8903 156.014 60.075 156.014 64.8178C156.014 69.5296 151.806 73.5904 147.01 73.5284Z" fill="url(#paint3_linear_263_846)"/>
</g>
<defs>
<linearGradient id="paint0_linear_263_846" x1="0.00012207" y1="92.5457" x2="176.576" y2="92.5457" gradientUnits="userSpaceOnUse">
<stop stop-color="#01A7E1"/>
<stop offset="1" stop-color="#0A2AA0"/>
</linearGradient>
<linearGradient id="paint1_linear_263_846" x1="24.7853" y1="51.2561" x2="69.5289" y2="51.2561" gradientUnits="userSpaceOnUse">
<stop stop-color="#01A7E1"/>
<stop offset="1" stop-color="#0A2AA0"/>
</linearGradient>
<linearGradient id="paint2_linear_263_846" x1="138.062" y1="23.5088" x2="156.068" y2="23.5088" gradientUnits="userSpaceOnUse">
<stop stop-color="#01A7E1"/>
<stop offset="1" stop-color="#0A2AA0"/>
</linearGradient>
<linearGradient id="paint3_linear_263_846" x1="138.19" y1="64.6628" x2="156.014" y2="64.6628" gradientUnits="userSpaceOnUse">
<stop stop-color="#01A7E1"/>
<stop offset="1" stop-color="#0A2AA0"/>
</linearGradient>
<clipPath id="clip0_263_846">
<rect width="176.56" height="181" fill="white"/>
</clipPath>
</defs>
</svg>
